<mxfile host="app.diagrams.net" modified="2023-12-31T13:53:09.605Z" agent="Mozilla/5.0 (Windows NT 10.0; Win64; x64) AppleWebKit/537.36 (KHTML, like Gecko) Chrome/120.0.0.0 Safari/537.36" version="22.1.15" etag="Kqfp43d9EgPTMIIeG8kf" type="github">
  <diagram name="第 1 页" id="HuQndsxqc5eb89gfjrGO">
    <mxGraphModel>
      <root>
        <mxCell id="0" />
        <mxCell id="1" parent="0" />
      </root>
    </mxGraphModel>
  </diagram>
</mxfile>
